<svg width="128" height="128" viewBox="0 0 128 128" fill="none" xmlns="http://www.w3.org/2000/svg">
  <defs>
    <linearGradient id="ajopayMarkGradient" x1="20" y1="20" x2="108" y2="108" gradientUnits="userSpaceOnUse">
      <stop stop-color="#1B2F6B"/>
      <stop offset="1" stop-color="#0F766E"/>
    </linearGradient>
  </defs>
  <rect x="8" y="8" width="112" height="112" rx="28" fill="url(#ajopayMarkGradient)"/>
  <circle cx="64" cy="64" r="30" stroke="white" stroke-opacity="0.35" stroke-width="2"/>
  <circle cx="64" cy="64" r="21" stroke="white" stroke-opacity="0.5" stroke-width="2"/>
  <circle cx="64" cy="34" r="4" fill="white"/>
  <circle cx="89.98" cy="49" r="3.5" fill="white"/>
  <circle cx="89.98" cy="79" r="3.5" fill="white"/>
  <circle cx="64" cy="94" r="4" fill="white"/>
  <circle cx="38.02" cy="79" r="3.5" fill="white"/>
  <circle cx="38.02" cy="49" r="3.5" fill="white"/>
  <path d="M64 34L89.98 49L89.98 79L64 94L38.02 79L38.02 49L64 34Z" stroke="white" stroke-opacity="0.55" stroke-width="1.8"/>
  <path d="M64 48L76.12 54.99V69.01L64 76L51.88 69.01V54.99L64 48Z" fill="white" fill-opacity="0.9"/>
</svg>
