<svg width="820" height="200" viewBox="0 0 820 200" fill="none" xmlns="http://www.w3.org/2000/svg">
  <defs>
    <linearGradient id="ajopayLogoGradient" x1="20" y1="20" x2="180" y2="180" gradientUnits="userSpaceOnUse">
      <stop stop-color="#1B2F6B"/>
      <stop offset="1" stop-color="#0F766E"/>
    </linearGradient>
  </defs>
  <rect x="20" y="20" width="160" height="160" rx="38" fill="url(#ajopayLogoGradient)"/>
  <circle cx="100" cy="100" r="42" stroke="white" stroke-opacity="0.35" stroke-width="2.6"/>
  <circle cx="100" cy="100" r="29" stroke="white" stroke-opacity="0.5" stroke-width="2.6"/>
  <circle cx="100" cy="58" r="5.5" fill="white"/>
  <circle cx="136.37" cy="79" r="4.8" fill="white"/>
  <circle cx="136.37" cy="121" r="4.8" fill="white"/>
  <circle cx="100" cy="142" r="5.5" fill="white"/>
  <circle cx="63.63" cy="121" r="4.8" fill="white"/>
  <circle cx="63.63" cy="79" r="4.8" fill="white"/>
  <path d="M100 58L136.37 79L136.37 121L100 142L63.63 121L63.63 79L100 58Z" stroke="white" stroke-opacity="0.55" stroke-width="2.4"/>
  <path d="M100 76L116.97 85.79V105.21L100 115L83.03 105.21V85.79L100 76Z" fill="white" fill-opacity="0.9"/>
  <path d="M240 128V72H264.4L282.88 118.64L301.36 72H325.6V128H309.04V94.08L295.6 128H269.68L256.24 94.08V128H240Z" fill="#0F172A"/>
  <path d="M355.566 129.44C350.98 129.44 346.926 128.453 343.406 126.48C339.886 124.453 337.139 121.653 335.166 118.08C333.193 114.507 332.206 110.373 332.206 105.68C332.206 101.04 333.166 96.9333 335.086 93.36C337.059 89.7867 339.753 87.0133 343.166 85.04C346.633 83.0667 350.58 82.08 355.006 82.08C359.486 82.08 363.326 83.0667 366.526 85.04C369.78 86.96 372.286 89.6267 374.046 93.04C375.806 96.4533 376.686 100.373 376.686 104.8C376.686 105.547 376.66 106.32 376.606 107.12C376.553 107.92 376.473 108.773 376.366 109.68H347.966C348.286 112.56 349.273 114.72 350.926 116.16C352.633 117.547 354.713 118.24 357.166 118.24C359.033 118.24 360.58 117.84 361.806 117.04C363.033 116.24 363.966 115.173 364.606 113.84H375.806C375.006 116.507 373.62 118.96 371.646 121.2C369.726 123.387 367.3 125.147 364.366 126.48C361.486 127.76 358.553 128.4 355.566 129.44ZM348.046 101.84H365.486C365.433 99.28 364.5 97.2533 362.686 95.76C360.926 94.2667 358.766 93.52 356.206 93.52C353.806 93.52 351.726 94.2133 349.966 95.6C348.206 96.9333 347.1 99.0133 346.646 101.84H348.046Z" fill="#0F172A"/>
  <path d="M404.508 129.44C400.615 129.44 397.122 128.56 394.028 126.8C390.988 124.987 388.562 122.427 386.748 119.12C384.988 115.813 384.108 111.947 384.108 107.52C384.108 103.093 384.988 99.2267 386.748 95.92C388.562 92.6133 390.988 90.08 394.028 88.32C397.122 86.56 400.615 85.68 404.508 85.68C408.188 85.68 411.362 86.4267 414.028 87.92C416.748 89.36 418.908 91.36 420.508 93.92V72H431.388V128H421.628L420.508 121.76C419.015 123.893 416.988 125.787 414.428 127.44C411.922 129.093 408.615 129.44 404.508 129.44ZM407.388 119.92C410.855 119.92 413.655 118.773 415.788 116.48C417.975 114.133 419.068 111.147 419.068 107.52C419.068 103.893 417.975 100.933 415.788 98.64C413.655 96.2933 410.855 95.12 407.388 95.12C403.975 95.12 401.175 96.2933 398.988 98.64C396.802 100.933 395.708 103.893 395.708 107.52C395.708 111.147 396.802 114.133 398.988 116.48C401.175 118.773 403.975 119.92 407.388 119.92Z" fill="#0F172A"/>
  <path d="M448.666 145.6V86.56H458.346L459.306 92.16C460.799 90.0267 462.826 88.1067 465.386 86.4C467.946 84.64 471.279 83.76 475.386 83.76C479.279 83.76 482.746 84.64 485.786 86.4C488.879 88.16 491.306 90.6933 493.066 94C494.879 97.3067 495.786 101.173 495.786 105.6C495.786 110.027 494.879 113.893 493.066 117.2C491.306 120.507 488.879 123.067 485.786 124.88C482.746 126.64 479.279 127.52 475.386 127.52C471.866 127.52 468.746 126.8 466.026 125.36C463.359 123.867 461.199 121.84 459.546 119.28V145.6H448.666ZM472.506 117.92C475.919 117.92 478.719 116.773 480.906 114.48C483.146 112.187 484.266 109.227 484.266 105.6C484.266 101.973 483.146 99.0133 480.906 96.72C478.719 94.3733 475.919 93.2 472.506 93.2C469.039 93.2 466.212 94.3733 464.026 96.72C461.839 99.0133 460.746 101.973 460.746 105.6C460.746 109.227 461.839 112.187 464.026 114.48C466.212 116.773 469.039 117.92 472.506 117.92Z" fill="#0F172A"/>
  <path d="M520.314 129.44C517.114 129.44 514.287 128.933 511.834 127.92C509.434 126.907 507.54 125.387 506.154 123.36C504.82 121.28 504.154 118.693 504.154 115.6C504.154 110.48 506.1 106.453 509.994 103.52C513.94 100.587 519.54 99.12 526.794 99.12H535.354V98.32C535.354 95.4933 534.58 93.4133 533.034 92.08C531.54 90.7467 529.594 90.08 527.194 90.08C525.06 90.08 523.22 90.6133 521.674 91.68C520.18 92.6933 519.247 94.2133 518.874 96.24H508.314C508.58 93.2 509.594 90.5333 511.354 88.24C513.167 85.9467 515.46 84.1867 518.234 82.96C521.06 81.7333 524.18 81.12 527.594 81.12C533.434 81.12 537.94 82.5867 541.114 85.52C544.34 88.4 545.954 92.48 545.954 97.76V128H536.754L535.754 122.32C534.58 124.24 532.98 125.893 530.954 127.28C528.98 128.667 525.434 129.44 520.314 129.44ZM522.554 120.96C525.594 120.96 528.047 119.947 529.914 117.92C531.78 115.893 533.007 113.333 533.594 110.24H526.074C522.607 110.24 520.18 110.853 518.794 112.08C517.46 113.253 516.794 114.72 516.794 116.48C516.794 118.347 517.487 119.76 518.874 120.72C520.26 121.68 521.487 120.96 522.554 120.96Z" fill="#0F172A"/>
  <path d="M565.241 145.6L575.241 123.6H572.761L554.761 82.56H566.521L580.201 115.6L594.201 82.56H605.401L577.081 145.6H565.241Z" fill="#0F172A"/>
</svg>
